<svg version="1.1" id="Layer_2_1_" xmlns="http://www.w3.org/2000/svg" x="0" y="0" viewBox="0 0 100 100" xml:space="preserve"><style type="text/css">.st0,.st1{opacity:.7;fill:#ffc920;enable-background:new}.st1{opacity:.9;fill:#ffce39}</style><path class="st0" d="M84.5 52.2l-28-28h28v28z"/><path class="st0" d="M36.9 0l28 28h-28V0z"/><path class="st1" d="M37.8 43.9l-28-28h33.8v28h-5.8zM62.4 72l28 28h-28V72z"/><path d="M43.4 72l-28-28h28.1v28h-.1zm30.2-14.2L51.2 35.4h22.4v22.4zm2.6 39.6L50.8 72h25.5v25.4z" opacity=".7" fill="#ffe38f"/><path d="M43.4 38.2l-28-28h28v28z" opacity=".9" fill="#fbbb7c"/><path d="M50.9 72l28 28H50.8V72h.1z" opacity=".8" fill="#f89f40"/><path d="M79.3 83.2l-28-28h28v28z" opacity=".7" fill="#f89f40"/><path class="st1" d="M51.2 35.4l27.7 27.7H51.2V35.4z"/><path d="M43.4 99.9L9.6 66.1h33.8v33.8z" opacity=".7" fill="#ffc637"/></svg>