<svg xmlns="http://www.w3.org/2000/svg" viewBox="0 0 450.25 500.5"><defs><style>.cls-1,.cls-7{fill:none;stroke:#000;stroke-miterlimit:10;}.cls-1{stroke-width:0.5px;}.cls-2{fill:#fff;}.cls-3{font-size:20px;font-family:Futura-Medium, Futura;}.cls-4{letter-spacing:0.01em;}.cls-5{letter-spacing:0.02em;}.cls-6{letter-spacing:0.04em;}</style></defs><title>_ACTIVE</title><g id="Layer_2" data-name="Layer 2"><g id="min"><rect class="cls-1" x="200" y="0.25" width="250" height="500"/></g><g id="hover"><rect class="cls-2" x="0.13" y="50.38" width="399.74" height="399.74" rx="36.26" ry="36.26"/><path d="M363.61,50.51a36.17,36.17,0,0,1,36.13,36.13V413.86A36.17,36.17,0,0,1,363.61,450H36.39A36.17,36.17,0,0,1,.26,413.86V86.64A36.17,36.17,0,0,1,36.39,50.51H363.61m0-.26H36.39A36.49,36.49,0,0,0,0,86.64V413.86a36.49,36.49,0,0,0,36.39,36.39H363.61A36.49,36.49,0,0,0,400,413.86V86.64a36.49,36.49,0,0,0-36.39-36.39Z"/><text class="cls-3" transform="translate(233.65 109.22) rotate(0.72)"><tspan class="cls-4">t</tspan><tspan x="5.61" y="0">op bar</tspan></text><rect x="336" y="88.25" width="32" height="32"/><text class="cls-3" transform="translate(233.65 193.22) rotate(0.72)">body</text><rect x="336" y="172.25" width="32" height="32"/><text class="cls-3" transform="translate(233.65 277.22) rotate(0.72)">p<tspan class="cls-5" x="11.99" y="0">r</tspan><tspan x="19.78" y="0">ima</tspan><tspan class="cls-6" x="52.57" y="0">r</tspan><tspan x="60.93" y="0">y</tspan></text><rect x="336" y="256.25" width="32" height="32"/><text class="cls-3" transform="translate(233.65 361.22) rotate(0.72)">seconda<tspan class="cls-6" x="75.68" y="0">r</tspan><tspan x="84.04" y="0">y</tspan></text><rect x="336" y="340.25" width="32" height="32"/><rect class="cls-7" x="233.56" y="125.83" width="134.44" height="26.48"/><rect class="cls-7" x="233.56" y="212.01" width="134.44" height="26.48"/><rect class="cls-7" x="233.56" y="296.01" width="134.44" height="26.48"/><rect class="cls-7" x="233.56" y="380.01" width="134.44" height="26.48"/></g></g></svg>