<svg xmlns="http://www.w3.org/2000/svg" viewBox="0 0 325.25 500.5"><g data-name="Layer 2">
<path fill="none" stroke="#000" stroke-miterlimit="10" stroke-width=".5" d="M75 .25h250v500H75z"/>
<path d="M75 316.75a74.5 74.5 0 1 1 74.5-74.5 74.58 74.58 0 0 1-74.5 74.5zm0-125a50.5 50.5 0 1 0 50.5 50.5 50.56 50.56 0 0 0-50.5-50.5z" fill="#fff"/>
<path d="M75 168.25a74 74 0 1 1-74 74 74.08 74.08 0 0 1 74-74m0 125a51 51 0 1 0-51-51 51.06 51.06 0 0 0 51 51m0-126a75 75 0 1 0 75 75 75 75 0 0 0-75-75zm0 125a50 50 0 1 1 50-50 50 50 0 0 1-50 50z"/></g></svg>