<svg xmlns="http://www.w3.org/2000/svg" viewBox="0 0 150 150"><defs><style>.cls-5{fill:#fefefe}</style></defs><g id="Layer_2" data-name="Layer 2"><g id="min"><path d="M124.68 19.66a2.83 2.83 0 0 1 .24 1.8 2.45 2.45 0 0 1-.71 1.24 9.41 9.41 0 0 1-1.28.91l-1.34.88c-1.8 1.16-3.7 2.26-5.59 3.37S112.12 30 110 31a67.83 67.83 0 0 1-6.51 2.83 67.83 67.83 0 0 1-.73-7.06c-.14-2.3-.17-4.52-.18-6.74s.07-4.38.2-6.52l.11-1.6a9.41 9.41 0 0 1 .17-1.56 2.45 2.45 0 0 1 .74-1.23 2.83 2.83 0 0 1 1.69-.67zM145.58 62.32a2.59 2.59 0 0 1-.82 1.49 2 2 0 0 1-1.2.45 8 8 0 0 1-1.43-.16l-1.45-.23c-1.94-.32-3.92-.76-5.89-1.18s-4-1-6-1.59a61.56 61.56 0 0 1-6.26-2.18 61.56 61.56 0 0 1 3.39-5.69c1.17-1.79 2.38-3.45 3.6-5.1s2.48-3.19 3.75-4.69l1-1.11a8 8 0 0 1 1-1 2 2 0 0 1 1.21-.42 2.59 2.59 0 0 1 1.59.61zM138.29 109a2.61 2.61 0 0 1-1.58.65 2 2 0 0 1-1.24-.39 8.14 8.14 0 0 1-1-1l-1-1.08c-1.34-1.46-2.64-3-3.94-4.59s-2.56-3.25-3.8-5a62.09 62.09 0 0 1-3.6-5.61 62.1 62.1 0 0 1 6.24-2.34c2-.67 4-1.22 6-1.75s4-1 5.9-1.33l1.45-.27a8.14 8.14 0 0 1 1.43-.2 2 2 0 0 1 1.23.42 2.61 2.61 0 0 1 .88 1.47zM103.43 140.68a2.62 2.62 0 0 1-1.6-.63 2 2 0 0 1-.62-1.14 8.19 8.19 0 0 1 0-1.45v-1.48c0-2 .19-4 .32-6.06s.39-4.13.71-6.27a62.31 62.31 0 0 1 1.27-6.56 62.31 62.31 0 0 1 6.14 2.64c1.95.93 3.77 1.93 5.58 2.94s3.53 2.06 5.19 3.14l1.24.82a8.19 8.19 0 0 1 1.18.85 2 2 0 0 1 .59 1.16 2.62 2.62 0 0 1-.38 1.67z"/><path d="M76.79 71a6.37 6.37 0 0 1 4.35-1.13 4.79 4.79 0 0 1 3.62 2.31c2.63 4.72 5.16 9.49 7.73 14.24-.33.15-.66.28-1 .44l-8.23 4.25-.37-.47c-.12-.25-.22-.51-.36-.75q-3.16-5.83-6.34-11.65a11.26 11.26 0 0 1-1-2.36 6.11 6.11 0 0 1 .28-2.79c.25-.77.98-1.29 1.32-2.09zm4.4 1.58a2.56 2.56 0 1 0 1.72 3.19 2.61 2.61 0 0 0-1.72-3.15z" fill="#b968c7"/><path d="M83.27 91.15l8.23-4.25c.32-.16.66-.3 1-.44 1.73 3 3.4 6.06 5 9.16-.3.13-.62.25-.91.41l-8.31 4.29-3.16-5.65z" fill="#cd93d7"/><path d="M88.24 100.32L96.55 96c.29-.15.61-.27.91-.41 1.73 3 3.41 6.06 5 9.16-.3.14-.61.26-.91.41l-8.29 4.29c-1.76-2.99-3.41-6.05-5.02-9.13z" fill="#e0bee6"/><path d="M93.23 109.48l8.29-4.29c.29-.15.6-.27.91-.41q2.4 4.36 4.81 8.71c.16.3.09.43-.19.57q-4.19 2.18-8.37 4.39c-.35.18-.54.14-.73-.21q-2.35-4.39-4.72-8.76z" fill="#f9dbff"/><path class="cls-5" d="M81.19 72.62a2.57 2.57 0 1 1-3.27 1.57 2.6 2.6 0 0 1 3.27-1.57z"/><path d="M75.13 74.49a6.37 6.37 0 0 1 2.5-3.73 4.79 4.79 0 0 1 4.24-.68C87 71.86 92 73.74 97.1 75.59c-.15.33-.31.65-.44 1q-1.66 4.3-3.33 8.62l-.59-.11c-.25-.11-.5-.23-.76-.32l-12.48-4.5a11.26 11.26 0 0 1-2.33-1.08 6.11 6.11 0 0 1-1.64-2.27 19.75 19.75 0 0 1-.4-2.44zm4.34-1.74a2.56 2.56 0 1 0 3.4 1.25 2.61 2.61 0 0 0-3.4-1.25z" fill="#4fc2f6"/><path d="M93.33 85.21l3.32-8.64c.13-.33.29-.66.44-1 3.3 1.11 6.57 2.27 9.81 3.54-.14.3-.29.6-.41.91l-3.36 8.73L97 86.64z" fill="#80d3f9"/><path d="M103.14 88.76l3.35-8.76c.12-.31.27-.61.41-.91 3.3 1.1 6.57 2.26 9.8 3.54-.14.3-.29.6-.41.91L113 92.29c-3.34-1.11-6.61-2.29-9.86-3.53z" fill="#b2e4fb"/><path d="M113 92.29l3.35-8.72c.12-.31.27-.61.41-.91l9.33 3.34c.32.11.35.26.24.56Q124.65 91 123 95.38c-.14.37-.31.47-.69.33z" fill="#d5effb"/><path class="cls-5" d="M79.47 72.75a2.57 2.57 0 1 1-1.4 3.35 2.6 2.6 0 0 1 1.4-3.35z"/><path d="M75.72 78.19a6.37 6.37 0 0 1-.49-4.46A4.79 4.79 0 0 1 78 70.48c5-1.92 10.14-3.73 15.21-5.57.1.35.18.7.29 1l3 8.76-.5.33c-.26.08-.53.15-.79.24Q89 77.52 82.79 79.81a11.26 11.26 0 0 1-2.48.67 6.11 6.11 0 0 1-2.72-.69c-.76-.36-1.17-1.15-1.87-1.6zm2.2-4.12a2.56 2.56 0 1 0 3.4-1.24 2.61 2.61 0 0 0-3.4 1.24z" fill="#fc1744"/><path d="M96.28 74.81q-1.51-4.38-3-8.76c-.12-.34-.2-.69-.29-1 3.24-1.27 6.49-2.48 9.79-3.59.09.32.16.65.27 1q1.51 4.42 3 8.84L100 73.54z" fill="#fe5252"/><path d="M106.05 71.22l-3-8.86c-.11-.31-.18-.64-.26-1 3.24-1.27 6.5-2.46 9.8-3.55.09.32.16.64.27 1l3 8.84c-3.25 1.26-6.52 2.43-9.81 3.57z" fill="#fe8a80"/><path d="M115.84 67.74q-1.52-4.41-3-8.83c-.11-.31-.18-.64-.27-1l9.32-3.49c.32-.12.44 0 .54.27q1.55 4.46 3.13 8.92c.13.37.06.56-.32.69z" fill="#fec9c4"/><path d="M78.8 80.37a6.37 6.37 0 0 1-3.24-3.11 4.79 4.79 0 0 1 .07-4.26c2.63-4.71 5.37-9.37 8.07-14 .3.2.58.42.89.61l7.93 4.77-.21.56c-.15.23-.31.46-.45.7q-3.3 5.75-6.59 11.51a11.26 11.26 0 0 1-1.47 2.11 6.11 6.11 0 0 1-2.52 1.22 19.75 19.75 0 0 1-2.48-.11zm-1-4.57a2.56 2.56 0 1 0 1.81-3.13 2.61 2.61 0 0 0-1.77 3.12z" fill="#fea626"/><path d="M92.52 64.3l-7.93-4.77c-.31-.19-.6-.4-.89-.61 1.66-3.05 3.38-6.08 5.19-9 .27.19.54.39.82.56l8 4.82-3.15 5.66z" fill="#feb64d"/><path d="M97.72 55.26l-8-4.82c-.28-.17-.55-.37-.82-.56 1.65-3.06 3.37-6.08 5.19-9 .27.19.54.39.82.56l8 4.81c-1.67 3.01-3.42 6.02-5.19 9.01z" fill="#fecb80"/><path d="M102.9 46.2l-8-4.81c-.28-.17-.55-.37-.82-.56q2.45-4.33 4.89-8.66c.17-.3.32-.3.59-.14q4.06 2.42 8.13 4.82c.34.2.41.39.2.74q-2.51 4.3-4.99 8.61z" fill="#fedfb2"/><path class="cls-5" d="M77.84 75.79a2.57 2.57 0 1 1 3.05 2 2.6 2.6 0 0 1-3.05-2z"/><path d="M75 149.5A74.5 74.5 0 1 1 149.5 75 74.58 74.58 0 0 1 75 149.5zm0-125A50.5 50.5 0 1 0 125.5 75 50.56 50.56 0 0 0 75 24.5z" fill="#fff"/><path d="M75 1A74 74 0 1 1 1 75 74.08 74.08 0 0 1 75 1m0 125a51 51 0 1 0-51-51 51.06 51.06 0 0 0 51 51M75 0a75 75 0 1 0 75 75A75 75 0 0 0 75 0zm0 125a50 50 0 1 1 50-50 50 50 0 0 1-50 50z"/></g></g></svg>