<svg xmlns="http://www.w3.org/2000/svg" viewBox="0 0 150 150"><defs><style>.cls-1{fill:#b968c7;}.cls-2{fill:#cd93d7;}.cls-3{fill:#e0bee6;}.cls-4{fill:#f9dbff;}.cls-5{fill:#fefefe;}.cls-6{fill:#4fc2f6;}.cls-7{fill:#80d3f9;}.cls-8{fill:#b2e4fb;}.cls-9{fill:#d5effb;}.cls-10{fill:#fc1744;}.cls-11{fill:#fe5252;}.cls-12{fill:#fe8a80;}.cls-13{fill:#fec9c4;}.cls-14{fill:#fea626;}.cls-15{fill:#feb64d;}.cls-16{fill:#fecb80;}.cls-17{fill:#fedfb2;}.cls-18{fill:#fff;}</style></defs><title>resting</title><g id="Layer_2" data-name="Layer 2"><g id="min"><path d="M124.68,19.66a2.83,2.83,0,0,1,.24,1.8,2.45,2.45,0,0,1-.71,1.24,9.41,9.41,0,0,1-1.28.91l-1.34.88c-1.8,1.16-3.7,2.26-5.59,3.37S112.12,30,110,31a67.83,67.83,0,0,1-6.51,2.83,67.83,67.83,0,0,1-.73-7.06c-.14-2.3-.17-4.52-.18-6.74s.07-4.38.2-6.52l.11-1.6a9.41,9.41,0,0,1,.17-1.56,2.45,2.45,0,0,1,.74-1.23,2.83,2.83,0,0,1,1.69-.67Z"/><path d="M145.58,62.32a2.59,2.59,0,0,1-.82,1.49,2,2,0,0,1-1.2.45,8,8,0,0,1-1.43-.16l-1.45-.23c-1.94-.32-3.92-.76-5.89-1.18s-4-1-6-1.59a61.56,61.56,0,0,1-6.26-2.18,61.56,61.56,0,0,1,3.39-5.69c1.17-1.79,2.38-3.45,3.6-5.1s2.48-3.19,3.75-4.69l1-1.11a8,8,0,0,1,1-1,2,2,0,0,1,1.21-.42,2.59,2.59,0,0,1,1.59.61Z"/><path d="M138.29,109a2.61,2.61,0,0,1-1.58.65,2,2,0,0,1-1.24-.39,8.14,8.14,0,0,1-1-1l-1-1.08c-1.34-1.46-2.64-3-3.94-4.59s-2.56-3.25-3.8-5a62.09,62.09,0,0,1-3.6-5.61,62.1,62.1,0,0,1,6.24-2.34c2-.67,4-1.22,6-1.75s4-1,5.9-1.33l1.45-.27a8.14,8.14,0,0,1,1.43-.2,2,2,0,0,1,1.23.42,2.61,2.61,0,0,1,.88,1.47Z"/><path d="M103.43,140.68a2.62,2.62,0,0,1-1.6-.63,2,2,0,0,1-.62-1.14,8.19,8.19,0,0,1,0-1.45l0-1.48c0-2,.19-4,.32-6.06s.39-4.13.71-6.27a62.31,62.31,0,0,1,1.27-6.56,62.31,62.31,0,0,1,6.14,2.64c1.95.93,3.77,1.93,5.58,2.94s3.53,2.06,5.19,3.14l1.24.82a8.19,8.19,0,0,1,1.18.85,2,2,0,0,1,.59,1.16,2.62,2.62,0,0,1-.38,1.67Z"/><path class="cls-1" d="M76.79,71a6.37,6.37,0,0,1,4.35-1.13,4.79,4.79,0,0,1,3.62,2.31c2.63,4.72,5.16,9.49,7.73,14.24-.33.15-.66.28-1,.44l-8.23,4.25-.37-.47c-.12-.25-.22-.51-.36-.75q-3.16-5.83-6.34-11.65a11.26,11.26,0,0,1-1-2.36,6.11,6.11,0,0,1,.28-2.79C75.72,72.32,76.45,71.8,76.79,71Zm4.4,1.58a2.56,2.56,0,1,0,1.72,3.19A2.61,2.61,0,0,0,81.19,72.62Z"/><path class="cls-2" d="M83.27,91.15,91.5,86.9c.32-.16.66-.3,1-.44,1.73,3,3.4,6.06,5,9.16-.3.13-.62.25-.91.41l-8.31,4.29-3.16-5.65Z"/><path class="cls-3" d="M88.24,100.32,96.55,96c.29-.15.61-.27.91-.41,1.73,3,3.41,6.06,5,9.16-.3.14-.61.26-.91.41l-8.29,4.29C91.5,106.46,89.85,103.4,88.24,100.32Z"/><path class="cls-4" d="M93.23,109.48l8.29-4.29c.29-.15.6-.27.91-.41q2.4,4.36,4.81,8.71c.16.3.09.43-.19.57q-4.19,2.18-8.37,4.39c-.35.18-.54.14-.73-.21Q95.6,113.85,93.23,109.48Z"/><path class="cls-5" d="M81.19,72.62a2.57,2.57,0,1,1-3.27,1.57A2.6,2.6,0,0,1,81.19,72.62Z"/><path class="cls-6" d="M75.13,74.49a6.37,6.37,0,0,1,2.5-3.73,4.79,4.79,0,0,1,4.24-.68C87,71.86,92,73.74,97.1,75.59c-.15.33-.31.65-.44,1Q95,80.89,93.33,85.21l-.59-.11c-.25-.11-.5-.23-.76-.32q-6.24-2.25-12.48-4.5a11.26,11.26,0,0,1-2.33-1.08,6.11,6.11,0,0,1-1.64-2.27A19.75,19.75,0,0,1,75.13,74.49Zm4.34-1.74A2.56,2.56,0,1,0,82.87,74,2.61,2.61,0,0,0,79.47,72.75Z"/><path class="cls-7" d="M93.33,85.21q1.66-4.32,3.32-8.64c.13-.33.29-.66.44-1,3.3,1.11,6.57,2.27,9.81,3.54-.14.3-.29.6-.41.91l-3.36,8.73L97,86.64Z"/><path class="cls-8" d="M103.14,88.76,106.49,80c.12-.31.27-.61.41-.91,3.3,1.1,6.57,2.26,9.8,3.54-.14.3-.29.6-.41.91L113,92.29C109.66,91.18,106.39,90,103.14,88.76Z"/><path class="cls-9" d="M113,92.29l3.35-8.72c.12-.31.27-.61.41-.91L126.09,86c.32.11.35.26.24.56Q124.65,91,123,95.38c-.14.37-.31.47-.69.33Z"/><path class="cls-5" d="M79.47,72.75a2.57,2.57,0,1,1-1.4,3.35A2.6,2.6,0,0,1,79.47,72.75Z"/><path class="cls-10" d="M75.72,78.19a6.37,6.37,0,0,1-.49-4.46A4.79,4.79,0,0,1,78,70.48c5-1.92,10.14-3.73,15.21-5.57.1.35.18.7.29,1q1.5,4.38,3,8.76L96,75c-.26.08-.53.15-.79.24Q89,77.52,82.79,79.81a11.26,11.26,0,0,1-2.48.67,6.11,6.11,0,0,1-2.72-.69C76.83,79.43,76.42,78.64,75.72,78.19Zm2.2-4.12a2.56,2.56,0,1,0,3.4-1.24A2.61,2.61,0,0,0,77.92,74.07Z"/><path class="cls-11" d="M96.28,74.81q-1.51-4.38-3-8.76c-.12-.34-.2-.69-.29-1,3.24-1.27,6.49-2.48,9.79-3.59.09.32.16.65.27,1q1.51,4.42,3,8.84L100,73.54Z"/><path class="cls-12" d="M106.05,71.22q-1.5-4.43-3-8.86c-.11-.31-.18-.64-.26-1,3.24-1.27,6.5-2.46,9.8-3.55.09.32.16.64.27,1q1.5,4.42,3,8.84C112.61,68.91,109.34,70.08,106.05,71.22Z"/><path class="cls-13" d="M115.84,67.74q-1.52-4.41-3-8.83c-.11-.31-.18-.64-.27-1l9.32-3.49c.32-.12.44,0,.54.27q1.55,4.46,3.13,8.92c.13.37.06.56-.32.69Z"/><path class="cls-14" d="M78.8,80.37a6.37,6.37,0,0,1-3.24-3.11A4.79,4.79,0,0,1,75.63,73c2.63-4.71,5.37-9.37,8.07-14,.3.2.58.42.89.61l7.93,4.77-.21.56c-.15.23-.31.46-.45.7q-3.3,5.75-6.59,11.51a11.26,11.26,0,0,1-1.47,2.11,6.11,6.11,0,0,1-2.52,1.22A19.75,19.75,0,0,1,78.8,80.37Zm-1-4.57a2.56,2.56,0,1,0,1.81-3.13A2.61,2.61,0,0,0,77.84,75.79Z"/><path class="cls-15" d="M92.52,64.3l-7.93-4.77c-.31-.19-.6-.4-.89-.61,1.66-3.05,3.38-6.08,5.19-9,.27.19.54.39.82.56l8,4.82-3.15,5.66Z"/><path class="cls-16" d="M97.72,55.26l-8-4.82c-.28-.17-.55-.37-.82-.56,1.65-3.06,3.37-6.08,5.19-9,.27.19.54.39.82.56l8,4.81C101.24,49.26,99.49,52.27,97.72,55.26Z"/><path class="cls-17" d="M102.9,46.2l-8-4.81c-.28-.17-.55-.37-.82-.56q2.45-4.33,4.89-8.66c.17-.3.32-.3.59-.14q4.06,2.42,8.13,4.82c.34.2.41.39.2.74Q105.38,41.89,102.9,46.2Z"/><path class="cls-5" d="M77.84,75.79a2.57,2.57,0,1,1,3.05,2A2.6,2.6,0,0,1,77.84,75.79Z"/><path class="cls-18" d="M75,149.5A74.5,74.5,0,1,1,149.5,75,74.58,74.58,0,0,1,75,149.5Zm0-125A50.5,50.5,0,1,0,125.5,75,50.56,50.56,0,0,0,75,24.5Z"/><path d="M75,1A74,74,0,1,1,1,75,74.08,74.08,0,0,1,75,1m0,125A51,51,0,1,0,24,75a51.06,51.06,0,0,0,51,51M75,0a75,75,0,1,0,75,75A75,75,0,0,0,75,0Zm0,125a50,50,0,1,1,50-50,50,50,0,0,1-50,50Z"/></g></g></svg>